<svg xmlns="http://www.w3.org/2000/svg" xmlns:xlink="http://www.w3.org/1999/xlink" width="901.48" height="209.291" viewBox="0 0 901.48 209.291">
  <defs>
    <linearGradient id="linear-gradient" x1="0.911" y1="-0.058" x2="0.232" y2="1.173" gradientUnits="objectBoundingBox">
      <stop offset="0" stop-color="#39bef0"/>
      <stop offset="1" stop-color="#0e6da0"/>
    </linearGradient>
  </defs>
  <g id="لوگو" transform="translate(-2264.521 -7144.651)">
    <path id="联合_1" data-name="联合 1" d="M62.078,205.9,0,70.94l62.726-.027L82.891,117.13H75.482L58.49,77.645H10.466l55.9,121.5,35.437.019L175.255,25.738h7.272L106.249,205.9Zm71.864-2.519a5.979,5.979,0,0,1-.389-11.689l75.4-184.876-46.8-.112L86.193,180.709l-5.769.089L40.372,96.554a5.981,5.981,0,1,1,6.29-2.418l36.484,76.776L157.753,0l61.084.128L139.841,194a5.984,5.984,0,0,1-4.847,9.472A5.738,5.738,0,0,1,133.942,203.378Z" transform="translate(2947.164 7144.651)" fill="url(#linear-gradient)"/>
    <path id="路径_265" data-name="路径 265" d="M-1460.383-93.766l-17.957-62.984h13.711l13.534,48.476,13.623-48.476h13.623l-17.958,62.984Zm49.272-60.861h13.8v10.35h-13.8Zm.177,15.215h13.357v45.646h-13.357Zm58.561-.088v12.3h-6.723a8.594,8.594,0,0,0-6.325,2.742,8.807,8.807,0,0,0-2.7,6.369v24.327h-13.446v-45.646h11.146v8.4a19.844,19.844,0,0,1,6.5-6.236,17.078,17.078,0,0,1,8.8-2.256Zm60.153.088v45.646h-11.057v-6.1q-5.131,7.165-14.419,7.165a23.043,23.043,0,0,1-12.031-3.273,24.551,24.551,0,0,1-8.713-8.758,23.121,23.121,0,0,1-3.229-11.942,22.961,22.961,0,0,1,3.229-11.854,24.2,24.2,0,0,1,8.713-8.713,23.284,23.284,0,0,1,12.031-3.229q9.288,0,14.419,7.165v-6.1Zm-24.68,34.146a10.983,10.983,0,0,0,8.006-3.273,10.867,10.867,0,0,0,3.317-8.05,11.013,11.013,0,0,0-3.317-8.094A10.909,10.909,0,0,0-1316.9-128a10.867,10.867,0,0,0-8.05,3.317,11.089,11.089,0,0,0-3.273,8.094,10.942,10.942,0,0,0,3.273,8.05A10.942,10.942,0,0,0-1316.9-105.266Zm74.041-.8v12.3h-9.907a17.2,17.2,0,0,1-8.448-2.123,16.022,16.022,0,0,1-6.1-5.883,15.936,15.936,0,0,1-2.256-8.36v-16.9h-10v-12.384h10v-13.534h13.446v13.534h12.384v12.3h-12.384v16.984a3.919,3.919,0,0,0,1.194,2.875,3.919,3.919,0,0,0,2.875,1.194Zm14.773-48.565h13.8v10.35h-13.8Zm.177,15.215h13.358v45.646h-13.358Zm74.749,45.646h-15.657l-11.677-17.427-3.715,4.069v13.357h-13.446v-65.549h13.446v33.7l13.092-13.8h16.454l-16.63,18.223Zm49.626-50.688h-16.277l-.089-12.3h46.176v12.3h-16.454v50.688h-13.358Zm84.3,27.777a30.78,30.78,0,0,1-.354,5.131h-33.88a12.963,12.963,0,0,0,4.423,5.75,11.762,11.762,0,0,0,7.165,2.212,12.879,12.879,0,0,0,10.35-4.6l9.731,5.131a22.136,22.136,0,0,1-8.581,7.652,25.392,25.392,0,0,1-11.677,2.7A22.883,22.883,0,0,1-1054-95.977a24.552,24.552,0,0,1-8.713-8.758,23.122,23.122,0,0,1-3.229-11.942,22.962,22.962,0,0,1,3.229-11.854,24.2,24.2,0,0,1,8.713-8.713,23.121,23.121,0,0,1,11.942-3.229,22.072,22.072,0,0,1,11.809,3.185,22.256,22.256,0,0,1,8.094,8.669A25.022,25.022,0,0,1-1019.231-116.677Zm-22.646-12.561a12.083,12.083,0,0,0-6.856,2.035,12.594,12.594,0,0,0-4.556,5.308h22.823a12.594,12.594,0,0,0-4.556-5.308A12.083,12.083,0,0,0-1041.877-129.239Zm85.63-10.173v45.646H-967.3v-6.1q-5.131,7.165-14.419,7.165a23.043,23.043,0,0,1-12.031-3.273,24.552,24.552,0,0,1-8.713-8.758,23.121,23.121,0,0,1-3.229-11.942,22.961,22.961,0,0,1,3.229-11.854,24.2,24.2,0,0,1,8.713-8.713,23.284,23.284,0,0,1,12.031-3.229q9.288,0,14.419,7.165v-6.1Zm-24.68,34.146a10.984,10.984,0,0,0,8.006-3.273,10.867,10.867,0,0,0,3.317-8.05,11.013,11.013,0,0,0-3.317-8.094A10.909,10.909,0,0,0-980.928-128a10.867,10.867,0,0,0-8.05,3.317,11.089,11.089,0,0,0-3.273,8.094,10.941,10.941,0,0,0,3.273,8.05A10.941,10.941,0,0,0-980.928-105.266Zm90.23-35.207a16.521,16.521,0,0,1,9.111,2.61,18.038,18.038,0,0,1,6.369,7.077,21.038,21.038,0,0,1,2.3,9.775v27.246h-13.446v-26.627a6.713,6.713,0,0,0-1.99-4.865,6.6,6.6,0,0,0-4.91-2.035,6.539,6.539,0,0,0-4.777,2.035,6.639,6.639,0,0,0-2.035,4.865v26.627h-13.358v-26.627a6.639,6.639,0,0,0-2.035-4.865,6.639,6.639,0,0,0-4.865-2.035,6.539,6.539,0,0,0-4.777,2.035,6.639,6.639,0,0,0-2.035,4.865v26.627H-940.59v-45.646h11.146v4.6a14.321,14.321,0,0,1,11.588-5.661,16.416,16.416,0,0,1,8.094,2.035,18.2,18.2,0,0,1,6.148,5.573,16.98,16.98,0,0,1,5.4-5.529A13.722,13.722,0,0,1-890.7-140.473Z" transform="translate(3742.86 7327.402)" fill="#39bef0"/>
    <path id="路径_264" data-name="路径 264" d="M-1450.2-73.447q.768,0,.768.68v5.053q0,.739-.768.739h-12.647a.653.653,0,0,1-.739-.739v-5.053q0-.68.739-.68Zm12.677,0q.768,0,.768.68v5.053q0,.739-.768.739h-12.647a.653.653,0,0,1-.739-.739v-5.053q0-.68.739-.68Zm12.677,0q.768,0,.768.68v5.053q0,.739-.768.739h-12.647a.653.653,0,0,1-.739-.739v-5.053q0-.68.739-.68Zm12.677,0q.768,0,.768.68v5.053q0,.739-.768.739h-12.647a.653.653,0,0,1-.739-.739v-5.053q0-.68.739-.68Zm12.677,0q.768,0,.768.68v5.053q0,.739-.768.739h-12.647a.653.653,0,0,1-.739-.739v-5.053q0-.68.739-.68Zm12.677,0q.768,0,.768.68v5.053q0,.739-.768.739h-12.647a.653.653,0,0,1-.739-.739v-5.053q0-.68.739-.68Zm37.321,6.471h-.886a17.513,17.513,0,0,1-4.521-.517,13.312,13.312,0,0,1-3.457-1.448,15.3,15.3,0,0,1-2.837-2.216q-1.3-1.285-2.659-2.822a9.854,9.854,0,0,1-1.049,1.6,13.466,13.466,0,0,1-1.4,1.507,13.249,13.249,0,0,1-1.684,1.315,13.7,13.7,0,0,1-1.891,1.049,17.589,17.589,0,0,1-3.959,1.152,26.088,26.088,0,0,1-4.521.384h-9.131v-6.471h9.544a17.609,17.609,0,0,0,3.014-.251,15.493,15.493,0,0,0,2.63-.68,8.893,8.893,0,0,0,2.054-1.034,4.625,4.625,0,0,0,1.315-1.315,3.57,3.57,0,0,0,.236-.754,4.142,4.142,0,0,0,.089-.842,5.607,5.607,0,0,0-.62-2.231,25.655,25.655,0,0,0-1.655-2.97q-1.034-1.625-2.364-3.413t-2.733-3.546q-1.4-1.758-2.778-3.369t-2.5-2.881l1.153-5.555,26.594-12.263,2.659,5.939-23.285,10.726,11.406,15.247q1.684,2.246,3.073,3.96a20.589,20.589,0,0,0,2.792,2.881,10.492,10.492,0,0,0,2.94,1.758,9.837,9.837,0,0,0,3.546.591h.886Zm31.47-6.471v6.471h-4.728a14.078,14.078,0,0,1-4.669-.724,8.336,8.336,0,0,1-3.4-2.142,10.959,10.959,0,0,1-3.886,2.128,16.861,16.861,0,0,1-5.186.739h-10.667v-6.471h10.667a10.263,10.263,0,0,0,3.117-.384,4.521,4.521,0,0,0,1.758-.96,2.7,2.7,0,0,0,.768-1.271,5.424,5.424,0,0,0,.177-1.344V-87.424h6.442v9.81a4.155,4.155,0,0,0,.31,1.7,3.661,3.661,0,0,0,.783,1.152,3.853,3.853,0,0,0,1.034.724,5.784,5.784,0,0,0,1.108.4,5.887,5.887,0,0,0,.99.163q.443.03.65.03Zm-12.913,22.28-4.669-4.728,4.61-4.787,4.787,4.787Zm-11.258-.059-4.669-4.728,4.61-4.787,4.787,4.787Zm44.826-40.364q.059.177.236.96t.428,1.935q.251,1.152.5,2.541t.473,2.792q.222,1.4.369,2.719a20.891,20.891,0,0,1,.148,2.29,12.25,12.25,0,0,1-.975,5.082,10.46,10.46,0,0,1-2.526,3.546,10.268,10.268,0,0,1-3.5,2.068,11.788,11.788,0,0,1-3.9.68h-13.149v-6.471h13.356a8.024,8.024,0,0,0,1.138-.118,3.768,3.768,0,0,0,1.492-.606,4.112,4.112,0,0,0,1.285-1.463,5.606,5.606,0,0,0,.547-2.719,13.929,13.929,0,0,0-.118-1.625q-.118-.975-.3-2.1t-.414-2.3q-.236-1.182-.458-2.216t-.428-1.862q-.207-.827-.325-1.271Zm-.62-6.176-4.669-4.728,4.61-4.787,4.787,4.787Zm-11.879-.059-4.669-4.728,4.58-4.787,4.787,4.787Zm29.638,30.849h-6.471v-42.61h6.471Zm32.947,0h-.62a13.878,13.878,0,0,1-2.453-.207,5.152,5.152,0,0,1-2.334-1.182,21.618,21.618,0,0,1-1.463,7.151,15.744,15.744,0,0,1-3.575,5.437,15.6,15.6,0,0,1-5.511,3.457,20.622,20.622,0,0,1-7.3,1.212h-4.078v-6.471h4.078a18.456,18.456,0,0,0,5.1-.621,8.286,8.286,0,0,0,3.531-1.965,8.189,8.189,0,0,0,2.069-3.516,17.826,17.826,0,0,0,.679-5.275V-87.394h6.471v9.278a4.173,4.173,0,0,0,.635,2.423,4.868,4.868,0,0,0,1.463,1.418,5.132,5.132,0,0,0,1.61.665,6.4,6.4,0,0,0,1.079.163h.62Zm4.817-6.471q.768,0,.768.68v5.053q0,.739-.768.739h-12.647a.653.653,0,0,1-.739-.739v-5.053q0-.68.739-.68Zm21.334-18.143q.059.177.236.96t.428,1.935q.251,1.152.5,2.541t.473,2.792q.222,1.4.369,2.719a20.831,20.831,0,0,1,.148,2.29,12.248,12.248,0,0,1-.975,5.082,10.46,10.46,0,0,1-2.526,3.546,10.267,10.267,0,0,1-3.5,2.068,11.787,11.787,0,0,1-3.9.68h-13.149v-6.471h13.356a8.021,8.021,0,0,0,1.138-.118,3.767,3.767,0,0,0,1.492-.606,4.11,4.11,0,0,0,1.285-1.463,5.6,5.6,0,0,0,.547-2.719,13.932,13.932,0,0,0-.118-1.625q-.118-.975-.3-2.1t-.414-2.3q-.236-1.182-.458-2.216t-.428-1.862q-.207-.827-.325-1.271Zm-3.6,40.246-4.669-4.728,4.61-4.787,4.787,4.787ZM-1236-51.4l-4.669-4.728,4.61-4.787,4.787,4.787Zm26-6.176a35.6,35.6,0,0,0,7.505-.65,10.862,10.862,0,0,0,4.61-2.039,8.583,8.583,0,0,0,1.2-1.2,5.857,5.857,0,0,0,.857-1.448,9.216,9.216,0,0,0,.532-1.8,13.6,13.6,0,0,0,.222-2.261h-4.994a16.373,16.373,0,0,1-4.359-.606,11.086,11.086,0,0,1-3.989-2.024,10.646,10.646,0,0,1-2.926-3.753,13.09,13.09,0,0,1-1.137-5.762,17.39,17.39,0,0,1,.34-3.6,15.72,15.72,0,0,1,.872-2.851,11.484,11.484,0,0,1,1.182-2.172,16.724,16.724,0,0,1,1.271-1.6,12.208,12.208,0,0,1,3.856-2.615,11.762,11.762,0,0,1,4.683-.931,12.1,12.1,0,0,1,4.093.68,10.127,10.127,0,0,1,3.413,2.039,12.174,12.174,0,0,1,3.088,4.846,20.808,20.808,0,0,1,1.049,7v10.9a21.933,21.933,0,0,1-.325,3.915,15.368,15.368,0,0,1-.96,3.28,11.714,11.714,0,0,1-1.61,2.719,14.489,14.489,0,0,1-2.3,2.29,16.807,16.807,0,0,1-2.926,1.817,18.338,18.338,0,0,1-3.575,1.285,31,31,0,0,1-4.358.754,50.849,50.849,0,0,1-5.3.251Zm9.722-28.84a5.114,5.114,0,0,0-4.226,1.876A8.486,8.486,0,0,0-1206-79.121a6.587,6.587,0,0,0,.532,2.866,4.383,4.383,0,0,0,1.566,1.773,4.73,4.73,0,0,0,1.078.517,11.186,11.186,0,0,0,1.108.31,8.5,8.5,0,0,0,.96.163q.428.044.694.044h4.994v-4.876a17.2,17.2,0,0,0-.3-3.472,8.745,8.745,0,0,0-.768-2.29,4.624,4.624,0,0,0-1.049-1.374,3.784,3.784,0,0,0-1.152-.694,3.9,3.9,0,0,0-1.093-.236Q-1199.946-86.419-1200.271-86.419Zm81.615,19.443a7.89,7.89,0,0,1,1.581,2.349,6.041,6.041,0,0,1,.517,2.349,8.321,8.321,0,0,1-1.463,4.8A12.5,12.5,0,0,1-1122-53.827a21.237,21.237,0,0,1-5.851,2.334,29.4,29.4,0,0,1-7.092.827h-7.565a18.513,18.513,0,0,1-4.536-.547,17.555,17.555,0,0,1-4.063-1.566,16.9,16.9,0,0,1-3.472-2.482,17.98,17.98,0,0,1-2.792-3.295,20.21,20.21,0,0,1-2.866-10.845,32.081,32.081,0,0,1,1.049-7.949,48.946,48.946,0,0,1,3.413-9.012l5.733,2.778q-.975,2.1-1.684,3.974a37.131,37.131,0,0,0-1.167,3.6,26.119,26.119,0,0,0-.665,3.324,24.344,24.344,0,0,0-.207,3.132,13.822,13.822,0,0,0,1.95,7.505,9.355,9.355,0,0,0,3.871,3.6A11.868,11.868,0,0,0-1142.5-57.2h7.565a20.257,20.257,0,0,0,4.462-.473,15.932,15.932,0,0,0,3.679-1.271,8.251,8.251,0,0,0,2.526-1.876,3.9,3.9,0,0,0,1.034-2.32,7.182,7.182,0,0,0-2.275-1.67,16.24,16.24,0,0,0-3.177-1.138,31.308,31.308,0,0,0-3.767-.694q-2.009-.251-4.078-.34l.207-6.471h26.8v6.471Zm48.667-11.642q-.177.118-1.566,1.019t-3.694,2.2q-2.3,1.3-5.378,2.778a67.965,67.965,0,0,1-6.59,2.733,58.67,58.67,0,0,1-7.343,2.083,36.053,36.053,0,0,1-7.638.827h-8.51v-6.471h8.51a32.423,32.423,0,0,0,4.285-.3q2.216-.3,4.418-.813t4.359-1.2q2.157-.68,4.152-1.448t3.738-1.581q1.744-.813,3.132-1.61l-14.745-5.171a9.112,9.112,0,0,0-2.364-.4,4.038,4.038,0,0,0-1.832.369,3.669,3.669,0,0,0-1.389,1.212,9.038,9.038,0,0,0-1.064,2.1l-5.969-1.8a18.026,18.026,0,0,1,1.684-3.782,10.716,10.716,0,0,1,2.63-3.029,8.518,8.518,0,0,1,3.664-1.64,7.588,7.588,0,0,1,1.359-.118,11.4,11.4,0,0,1,3.428.591q1.655.532,3,.99t2.645.946q1.3.488,2.733,1.034t3.31,1.256q1.876.709,4.358,1.64t5.88,2.142Zm7.358,11.642h-6.471v-42.61h6.471Zm32.947,0h-.621a13.877,13.877,0,0,1-2.453-.207,5.151,5.151,0,0,1-2.334-1.182,21.618,21.618,0,0,1-1.463,7.151,15.744,15.744,0,0,1-3.575,5.437,15.6,15.6,0,0,1-5.511,3.457,20.622,20.622,0,0,1-7.3,1.212h-4.078v-6.471h4.078a18.456,18.456,0,0,0,5.1-.621,8.287,8.287,0,0,0,3.531-1.965,8.186,8.186,0,0,0,2.068-3.516,17.821,17.821,0,0,0,.68-5.275V-87.394h6.471v9.278a4.173,4.173,0,0,0,.635,2.423,4.866,4.866,0,0,0,1.463,1.418,5.132,5.132,0,0,0,1.61.665,6.4,6.4,0,0,0,1.078.163h.621Zm4.816-6.471q.768,0,.768.68v5.053q0,.739-.768.739h-12.647a.653.653,0,0,1-.739-.739v-5.053q0-.68.739-.68Zm-.768,6.471v-6.471h6.028l.355-.532q.177-.266.473-.694t.739-1.093q.443-.665,1.123-1.788v-32h6.442v23.048a26.69,26.69,0,0,1,2.556-2.512,18.484,18.484,0,0,1,2.807-1.995,14.643,14.643,0,0,1,3.073-1.33,11.51,11.51,0,0,1,3.354-.488,12.515,12.515,0,0,1,4.418.813,10.852,10.852,0,0,1,3.871,2.5,12.546,12.546,0,0,1,2.748,4.285,16.56,16.56,0,0,1,1.049,6.205,12.992,12.992,0,0,1-1.138,5.747,10.53,10.53,0,0,1-2.925,3.723,11.009,11.009,0,0,1-4,1.995,16.815,16.815,0,0,1-4.344.591Zm26.949-19.414a7.247,7.247,0,0,0-3.767,1.152,18.949,18.949,0,0,0-3.723,3.014,37.139,37.139,0,0,0-3.487,4.166q-1.67,2.3-3.058,4.61h13.711q.236,0,.68-.044t.975-.148a8.242,8.242,0,0,0,1.093-.3,5.521,5.521,0,0,0,1.093-.517,12.764,12.764,0,0,0,1.034-.768,5.67,5.67,0,0,0,.916-.96,4.678,4.678,0,0,0,.665-1.241,4.725,4.725,0,0,0,.251-1.61,9.007,9.007,0,0,0-.5-3.132,7,7,0,0,0-1.359-2.3A5.629,5.629,0,0,0-996.19-85.9,6.413,6.413,0,0,0-998.687-86.39Zm78.926,19.414a14.386,14.386,0,0,1-4.743-.665,6.089,6.089,0,0,1-3.029-2.32,7.711,7.711,0,0,1-1.773,1.655,9.157,9.157,0,0,1-1.876.96,8.049,8.049,0,0,1-1.773.443,12.218,12.218,0,0,1-1.463.1,11.453,11.453,0,0,1-3.93-.857q-2.275-.857-4.876-2.113t-5.348-2.719q-2.748-1.463-5.348-2.7l.059,27.274H-960.1l-.03-30.258,6.471-3.93,5.142,2.541q.325-1.714.768-3.413a23.54,23.54,0,0,1,1.093-3.236,17.31,17.31,0,0,1,1.537-2.866,10.369,10.369,0,0,1,2.083-2.3,8.754,8.754,0,0,1,2.792-1.507,10.936,10.936,0,0,1,3.339-.473h.236a11.124,11.124,0,0,1,5.068,1.108,10.937,10.937,0,0,1,3.694,2.984,13.235,13.235,0,0,1,2.26,4.329,17.1,17.1,0,0,1,.768,5.142q0,.5-.015.975t-.044.916a3.826,3.826,0,0,0,.68,2.261,4.977,4.977,0,0,0,1.492,1.359,5.687,5.687,0,0,0,1.7.665,7.008,7.008,0,0,0,1.3.177h1.241v6.471Zm-14.656-6.264a8.609,8.609,0,0,0,.916-.074,2.282,2.282,0,0,0,1.256-.665,4.812,4.812,0,0,0,1.108-1.935,12.3,12.3,0,0,0,.473-3.886,7.889,7.889,0,0,0-.089-.946,10.535,10.535,0,0,0-.31-1.433A9.681,9.681,0,0,0-931.7-83.8a6.045,6.045,0,0,0-1.064-1.522,5.334,5.334,0,0,0-1.581-1.123,5.075,5.075,0,0,0-2.2-.443,5.907,5.907,0,0,0-1.935.31,3.6,3.6,0,0,0-1.684,1.4,11.4,11.4,0,0,0-1.433,3.162,41,41,0,0,0-1.212,5.555q1.211.65,2.408,1.241t2.29,1.034a17.267,17.267,0,0,0,2.039.694A6.564,6.564,0,0,0-934.417-73.24Zm47.308-.207v6.471h-4.728a14.078,14.078,0,0,1-4.669-.724,8.336,8.336,0,0,1-3.4-2.142,10.959,10.959,0,0,1-3.886,2.128,16.862,16.862,0,0,1-5.186.739h-10.667v-6.471h10.667a10.263,10.263,0,0,0,3.117-.384,4.52,4.52,0,0,0,1.758-.96,2.7,2.7,0,0,0,.768-1.271,5.426,5.426,0,0,0,.177-1.344V-87.424h6.442v9.81a4.155,4.155,0,0,0,.31,1.7,3.659,3.659,0,0,0,.783,1.152,3.853,3.853,0,0,0,1.034.724,5.785,5.785,0,0,0,1.108.4,5.89,5.89,0,0,0,.99.163q.443.03.65.03Zm-12.913,22.28-4.669-4.728,4.61-4.787,4.787,4.787Zm-11.258-.059-4.669-4.728,4.61-4.787,4.787,4.787Zm44.826-40.364q.059.177.236.96t.428,1.935q.251,1.152.5,2.541t.473,2.792q.222,1.4.369,2.719a20.878,20.878,0,0,1,.148,2.29,12.249,12.249,0,0,1-.975,5.082,10.461,10.461,0,0,1-2.526,3.546,10.268,10.268,0,0,1-3.5,2.068,11.788,11.788,0,0,1-3.9.68H-888.35v-6.471h13.356a8.023,8.023,0,0,0,1.138-.118,3.767,3.767,0,0,0,1.492-.606,4.111,4.111,0,0,0,1.285-1.463,5.606,5.606,0,0,0,.547-2.719,13.944,13.944,0,0,0-.118-1.625q-.118-.975-.3-2.1t-.414-2.3q-.236-1.182-.458-2.216t-.428-1.862q-.207-.827-.325-1.271Zm-.621-6.176-4.669-4.728,4.61-4.787,4.787,4.787Zm-11.879-.059-4.669-4.728,4.58-4.787,4.787,4.787Z" transform="translate(3733.352 7401.859)" fill="#aeaeae"/>
  </g>
</svg>
