<svg xmlns="http://www.w3.org/2000/svg" width="48" height="48.102" viewBox="0 0 48 48.102"><path d="M28.77,39.57C2.523,38.483,2.529,1.083,28.77,0A19.679,19.679,0,0,1,42.758,5.775C55.19,18.075,46.241,39.618,28.77,39.57Zm0-35.819A16.052,16.052,0,0,0,12.736,19.785c.89,21.287,31.2,21.262,32.068-.037A16.034,16.034,0,0,0,28.77,3.751ZM2.421,48.1A1.875,1.875,0,0,1,1.1,44.9l8.439-8.392a1.875,1.875,0,1,1,2.645,2.66L3.744,47.557A1.869,1.869,0,0,1,2.421,48.1Zm38.256-25.4a3.934,3.934,0,0,0-3.822-4.891H30.739a1.875,1.875,0,0,0,0,3.751h6.116a.189.189,0,0,1,.156.077.148.148,0,0,1,.032.138,8.435,8.435,0,1,1-4.88-9.861,1.875,1.875,0,0,0,1.467-3.452A12.11,12.11,0,0,0,28.823,7.5,12.19,12.19,0,1,0,40.677,22.707Z" transform="translate(-0.546)" fill="#39bef0"/></svg>