<svg xmlns="http://www.w3.org/2000/svg" width="48" height="48" viewBox="0 0 48 48"><path d="M36.75,48H11.25A11.263,11.263,0,0,1,0,36.75V11.25A11.263,11.263,0,0,1,11.25,0h19.5a1.875,1.875,0,0,1,0,3.75H11.25a7.509,7.509,0,0,0-7.5,7.5v25.5a7.509,7.509,0,0,0,7.5,7.5h25.5a7.509,7.509,0,0,0,7.5-7.5V19.406a1.875,1.875,0,0,1,3.75,0V36.75A11.263,11.263,0,0,1,36.75,48Zm-.625-25.8L46.639,9.645l.006-.007a5.885,5.885,0,0,0-9.064-7.509l-.011.013L27.233,14.848a1.875,1.875,0,1,0,2.909,2.367l10.331-12.7a2.135,2.135,0,0,1,3.286,2.727L33.25,19.8A1.875,1.875,0,0,0,36.125,22.2ZM15.89,40.594a5.6,5.6,0,0,1-4.758-2.672,4.278,4.278,0,0,1-.085-4.338,28,28,0,0,0,2-4.791c.885-2.593,1.722-5.042,4.248-7.143a8.871,8.871,0,0,1,12.549,1.205,9.053,9.053,0,0,1,2.034,5.727c.21,7.3-9.374,12.015-15.985,12.012Zm7.069-17.25a5.087,5.087,0,0,0-3.269,1.189c-1.716,1.428-2.3,3.124-3.1,5.473a31.493,31.493,0,0,1-2.265,5.4.544.544,0,0,0,.036.617,1.856,1.856,0,0,0,1.527.825c4.153,0,12.235-2.916,12.235-8.262a5.223,5.223,0,0,0-1.185-3.35,5.108,5.108,0,0,0-3.487-1.864q-.248-.024-.494-.024Z" fill="#39bef0"/></svg>