<svg xmlns="http://www.w3.org/2000/svg" width="1159.014" height="1159.013" viewBox="0 0 1159.014 1159.013">
  <path id="_010-notes" data-name="010-notes" d="M420.227,978.418A45.246,45.246,0,0,1,375.8,924.854l23.68-127.439c.036-.2.074-.391.113-.589a326.577,326.577,0,0,1,89.377-167.344L694.371,422.5c61.486-64.214,171.868-64.226,233.334-.093,63.981,61.511,63.981,172.19,0,233.7l-205.4,206.984a325.657,325.657,0,0,1-167.11,89.64L428.93,977.564A44.663,44.663,0,0,1,420.227,978.418ZM488.272,814.3l-11.441,61.57,60.806-11.961a235.377,235.377,0,0,0,120.675-64.753l205.4-206.983c29.029-27.9,29.043-77.853.093-105.735h0c-27.751-28.98-77.688-28.98-105.436,0l-205.4,206.983A236.363,236.363,0,0,0,488.272,814.3ZM887.9,1159.513H271.114C121.622,1159.513,0,1037.654,0,887.87V272.144C0,122.359,121.622.5,271.114.5H887.9c149.492,0,271.114,121.859,271.114,271.644V887.87C1159.013,1037.654,1037.392,1159.513,887.9,1159.513ZM271.114,91.048c-99.662,0-180.743,81.24-180.743,181.1V887.87c0,99.856,81.081,181.1,180.743,181.1H887.9c99.662,0,180.743-81.24,180.743-181.1V272.144c0-99.856-81.081-181.1-180.743-181.1Zm189.78,212.788V226.87c-2.386-60.069-88.006-60.024-90.371,0v76.966a67.922,67.922,0,0,1-67.779,67.911H225.929c-59.952,2.39-59.907,88.178,0,90.548h76.816C389.948,462.294,460.894,391.21,460.894,303.836Z" transform="translate(0 -0.5)" fill="#001a27"/>
</svg>
