<svg xmlns="http://www.w3.org/2000/svg" width="48" height="48" viewBox="0 0 48 48"><path d="M17.4,41a1.874,1.874,0,0,1-1.84-2.218l.981-5.278,0-.024a13.525,13.525,0,0,1,3.7-6.93l8.506-8.572a6.837,6.837,0,1,1,9.663,9.675l-8.506,8.572a13.487,13.487,0,0,1-6.921,3.712l-5.229,1.029A1.85,1.85,0,0,1,17.4,41Zm2.818-6.8-.474,2.55,2.518-.5a9.748,9.748,0,0,0,5-2.682L35.77,25a3.112,3.112,0,0,0,0-4.379h0a3.1,3.1,0,0,0-4.367,0L22.9,29.2A9.789,9.789,0,0,0,20.222,34.2Zm16.55,14.3H11.228A11.252,11.252,0,0,1,0,37.25V11.75A11.252,11.252,0,0,1,11.228.5H36.772A11.252,11.252,0,0,1,48,11.75v25.5A11.252,11.252,0,0,1,36.772,48.5ZM11.228,4.25a7.5,7.5,0,0,0-7.485,7.5v25.5a7.5,7.5,0,0,0,7.485,7.5H36.772a7.5,7.5,0,0,0,7.485-7.5V11.75a7.5,7.5,0,0,0-7.485-7.5Zm7.86,8.812V9.875a1.871,1.871,0,0,0-3.743,0v3.187a2.813,2.813,0,0,1-2.807,2.813H9.357a1.875,1.875,0,0,0,0,3.75h3.181A6.564,6.564,0,0,0,19.088,13.062Z" transform="translate(0 -0.5)" fill="#39bef0"/></svg>