<svg xmlns="http://www.w3.org/2000/svg" width="1159.012" height="1161.484" viewBox="0 0 1159.012 1161.484">
  <path id="_044-search" data-name="044-search" d="M682.041,955.451C48.289,929.215,48.436,26.157,682.043,0,809.675,0,929.627,49.518,1019.8,139.435,1319.983,436.44,1103.913,956.622,682.041,955.451Zm0-864.887c-213.482,0-387.161,173.679-387.161,387.161,21.5,513.987,753.355,513.4,774.323-.89C1069.2,263.847,895.523,90.564,682.041,90.564ZM45.828,1161.484A45.281,45.281,0,0,1,13.9,1084.1L217.667,881.458a45.282,45.282,0,0,1,63.859,64.217L77.756,1148.312A45.133,45.133,0,0,1,45.828,1161.484Zm923.722-613.2a95,95,0,0,0-92.3-118.1H729.584c-60.08,2.391-60.035,88.194,0,90.564H877.252a4.569,4.569,0,0,1,3.768,1.859,3.567,3.567,0,0,1,.765,3.328c-36.762,152-234.3,205.365-342.6,92.579C412.78,491.607,504.918,272.163,683.63,271.694a202.472,202.472,0,0,1,80.317,16.136,45.282,45.282,0,0,0,35.429-83.346,292.4,292.4,0,0,0-116.037-23.352C527.767,178.427,389.019,315.591,390,471.182c-5.665,159.791,134.483,301.981,294.3,298.612A294.046,294.046,0,0,0,969.55,548.282Z" transform="translate(-0.547)" fill="#001a27"/>
</svg>
