<svg xmlns="http://www.w3.org/2000/svg" width="48" height="48" viewBox="0 0 48 48"><path d="M50.135,8.015A4.739,4.739,0,0,0,44.2,2.441L5.665,13.654l-.372.124a4.757,4.757,0,0,0-.784,8.485l15.939,9.811L30.036,47.96l.216.328a4.722,4.722,0,0,0,8.36-1.431L50.045,8.362ZM45.41,5.951a1.051,1.051,0,0,1,1.1,1.357L35.073,45.8,35,45.994a1.028,1.028,0,0,1-1.8.058L24.12,31.015,37.048,18l.178-.208a1.846,1.846,0,0,0-.187-2.4l-.207-.178a1.846,1.846,0,0,0-2.4.187L21.518,28.4,6.444,19.119,6.281,19a1.064,1.064,0,0,1,.414-1.8L45.23,5.987Z" transform="translate(-2.25 -2.249)" fill="#39bef0" fill-rule="evenodd"/></svg>