<svg xmlns="http://www.w3.org/2000/svg" width="1159.013" height="1159.014" viewBox="0 0 1159.013 1159.014">
  <path id="Send" d="M1158.5,141.471c18.519-83.542-59.171-158.927-143.286-134.583L84.705,277.647l-8.98,2.985C-11.616,313.5-25.017,435.147,56.79,485.51L441.648,722.4l231.534,383.585,5.206,7.922c54.274,76.044,174.465,57.62,201.863-34.554l276.077-929.5ZM1044.393,91.648c17.164-1.843,31.832,14.852,26.489,32.777L794.8,1053.954l-1.813,4.558a24.818,24.818,0,0,1-43.475,1.4L530.324,696.841l312.17-314.18,4.3-5.014a44.58,44.58,0,0,0-4.511-58.024l-5.01-4.3a44.584,44.584,0,0,0-58.024,4.509L467.5,633.6,103.522,409.59l-3.93-2.952c-14.135-12.877-9.377-37.762,9.991-43.383L1040.06,92.5Z" transform="translate(-2.25 -2.249)" fill="#001a27" fill-rule="evenodd"/>
</svg>
