<svg xmlns="http://www.w3.org/2000/svg" width="1159.014" height="1159.013" viewBox="0 0 1159.014 1159.013">
  <path id="_050-edition" data-name="050-edition" d="M887.37,1159.013H271.644C121.859,1159.013,0,1037.154,0,887.37V271.644C0,121.859,121.859,0,271.644,0H742.493c60.07,2.39,60.024,88.178,0,90.548H271.644c-99.856,0-181.1,81.24-181.1,181.1V887.37c0,99.856,81.24,181.1,181.1,181.1H887.37c99.856,0,181.1-81.24,181.1-181.1V468.585c2.391-60.069,88.178-60.024,90.548,0V887.37C1159.013,1037.154,1037.154,1159.013,887.37,1159.013ZM872.284,536.13l253.858-303.236c.048-.059.1-.12.147-.179,49.987-60.337,41.566-150.095-18.771-200.086S957.424-8.937,907.433,51.4c-.086.1-.17.208-.256.312L657.57,358.52a45.276,45.276,0,1,0,70.243,57.145L977.275,109.029a51.555,51.555,0,0,1,79.338,65.858L802.852,478.007a45.274,45.274,0,0,0,69.432,58.123ZM383.679,980.181c-46.7,0-91.791-25.326-114.88-64.515-19.678-33.4-20.423-71.583-2.046-104.75,22.678-40.93,35.653-78.926,48.2-115.675,21.381-62.609,41.577-121.748,102.561-172.487a214.19,214.19,0,0,1,303.019,29.1,218.606,218.606,0,0,1,49.124,138.285c5.073,176.31-226.34,290.111-385.979,290.043Zm170.69-416.527a122.83,122.83,0,0,0-78.94,28.7C434,626.829,420.009,667.8,400.643,724.5c-13.179,38.6-28.117,82.342-54.686,130.3-1.342,2.422-3.839,6.931.858,14.9,5.836,9.9,20.373,19.932,36.867,19.932,100.268,0,295.428-70.417,295.428-199.5a126.1,126.1,0,0,0-28.615-80.9,123.331,123.331,0,0,0-84.2-45.018q-5.986-.574-11.927-.57Z" fill="#001a27"/>
</svg>
