<svg xmlns="http://www.w3.org/2000/svg" width="1438.869" height="1438.868" viewBox="0 0 1438.869 1438.868">
  <path id="路径_264" data-name="路径 264" d="M1228.151,210.719a726.771,726.771,0,0,0-109.789-90.252A710.99,710.99,0,0,0,860.884,13.816a731,731,0,0,0-282.9,0,711,711,0,0,0-257.479,106.65,731.03,731.03,0,0,0-200.04,200.04A711,711,0,0,0,13.816,577.986a731,731,0,0,0,0,282.9,710.988,710.988,0,0,0,106.651,257.478A731.036,731.036,0,0,0,320.506,1318.4a711,711,0,0,0,257.479,106.65,731.01,731.01,0,0,0,282.9,0A710.993,710.993,0,0,0,1118.364,1318.4a730.988,730.988,0,0,0,200.039-200.04,711,711,0,0,0,106.651-257.479,730.979,730.979,0,0,0,0-282.9A710.992,710.992,0,0,0,1318.4,320.506,726.762,726.762,0,0,0,1228.151,210.719ZM270.4,270.4a645.991,645.991,0,0,1,49.443-44.605,632.507,632.507,0,0,1,109.644-71.669,627.287,627.287,0,0,1,59.391-26.736q-8.085,10.094-15.906,20.939t-15.358,22.432q-7.537,11.587-14.782,23.91t-14.178,25.372Q420.6,235.192,413.1,251.076t-14.432,32.439q-6.934,16.555-13.3,33.751t-12.152,34.973q-20.047-3.327-39.336-7.034t-37.737-7.784q-18.447-4.078-36.01-8.522t-34.157-9.245q5.2-6.393,10.576-12.673t10.927-12.441q5.551-6.161,11.28-12.2T270.4,270.4Zm-95.513,121.88q19.409,6.215,40.18,11.938,20.755,5.721,42.776,10.935,22.005,5.212,45.182,9.9,23.16,4.689,47.4,8.842-6.745,28.629-12.092,58.3-5.342,29.645-9.255,60.185-3.908,30.516-6.356,61.78-2.443,31.24-3.4,63.082H85.815a639.094,639.094,0,0,1,9.423-75.4,627.167,627.167,0,0,1,79.644-209.569Zm-4.595,646.517A627.845,627.845,0,0,1,94.828,834.786a638.743,638.743,0,0,1-9.016-73.154H319.477q1.035,30.909,3.488,61.284,2.449,30.353,6.287,60.038,3.833,29.663,9.028,58.524,5.19,28.839,11.711,56.741-24.717,4.007-48.416,8.56-23.681,4.551-46.235,9.633-22.536,5.081-43.835,10.68Q190.223,1032.689,170.287,1038.791ZM270.4,1168.475q-6.724-6.725-13.217-13.616t-12.756-13.94q-6.263-7.049-12.3-14.252t-11.84-14.553q17.2-4.77,35.4-9.171t37.284-8.424q19.091-4.022,39.034-7.659t40.644-6.876q5.828,18.024,12.25,35.453t13.429,34.2q7.006,16.773,14.59,32.86t15.734,31.428q7.556,14.22,15.482,27.574t16.2,25.832q8.271,12.478,16.875,24.074t17.516,22.3a628.432,628.432,0,0,1-119.071-60.11,635.48,635.48,0,0,1-54.57-39.522A645.64,645.64,0,0,1,270.4,1168.475Zm406.84,175.168a187.822,187.822,0,0,1-47.3-20.977,260.685,260.685,0,0,1-45.267-35.6,377.523,377.523,0,0,1-42.5-49.643,538.9,538.9,0,0,1-38.992-63.093q-6.47-12.174-12.545-24.892t-11.75-25.942q-5.676-13.223-10.949-26.932T457.791,1068.7q26.062-2.869,52.921-5.146,26.841-2.274,54.365-3.941,27.506-1.665,55.583-2.706,28.058-1.039,56.575-1.44Zm0-372.583q-31.6.431-62.758,1.633-31.131,1.2-61.669,3.148-30.514,1.947-60.291,4.627-29.753,2.677-58.624,6.068-6.363-26.305-11.449-53.649-5.081-27.321-8.854-55.547-3.768-28.2-6.2-57.174-2.424-28.949-3.48-58.532H677.238V971.06Zm0-293.825H403.752q.96-30.387,3.374-60.165,2.409-29.754,6.239-58.752,3.825-28.974,9.04-57.046,5.209-28.047,11.776-55.046,28.663,3.583,58.319,6.458,29.634,2.872,60.127,5.016,30.471,2.141,61.668,3.537,31.174,1.392,62.94,2.019Zm0-298.386q-28.608-.576-56.712-1.793-28.086-1.214-55.561-3.054-27.457-1.838-54.2-4.288-26.721-2.448-52.616-5.493,4.838-14.008,10.075-27.576t10.868-26.66q5.631-13.092,11.653-25.688t12.431-24.66a538.806,538.806,0,0,1,38.991-63.093,377.491,377.491,0,0,1,42.5-49.643,260.685,260.685,0,0,1,45.268-35.6,187.828,187.828,0,0,1,47.3-20.976Zm589.411,17.907a627.849,627.849,0,0,1,77.222,206.373,639.056,639.056,0,0,1,9.191,74.106h-233.5q-.937-31.451-3.342-62.361-2.4-30.886-6.237-61.09-3.832-30.18-9.071-59.538-5.233-29.334-11.842-57.7,24.379-3.937,47.77-8.406,23.374-4.466,45.657-9.451,22.266-4.982,43.338-10.469Q1246.888,402.733,1266.647,396.757ZM1168.472,270.4q6.354,6.354,12.5,12.859t12.085,13.152q5.94,6.647,11.676,13.432t11.272,13.7q-16.939,4.625-34.818,8.9t-36.612,8.182q-18.733,3.909-38.277,7.449t-39.812,6.7q-5.847-18.135-12.3-35.669T1040.7,284.691q-7.039-16.872-14.661-33.051t-15.819-31.6q-6.933-13.049-14.178-25.372t-14.782-23.91q-7.538-11.587-15.358-22.432T950,127.385a628.315,628.315,0,0,1,115.867,59.592,635.758,635.758,0,0,1,53.164,38.813A645.893,645.893,0,0,1,1168.472,270.4ZM761.634,761.635h273.326q-1.058,29.791-3.517,58.984-2.454,29.17-6.277,57.6-3.818,28.411-8.975,55.946-5.151,27.512-11.611,54.01-28.659-3.563-58.306-6.418-29.625-2.852-60.1-4.977-30.458-2.122-61.636-3.5-31.156-1.374-62.9-1.984Zm0-84.4v-213.7q31.621-.415,62.8-1.6,31.152-1.182,61.714-3.117,30.538-1.931,60.341-4.6,29.779-2.663,58.677-6.041,6.455,26.771,11.585,54.615,5.125,27.82,8.9,56.571,3.765,28.727,6.144,58.241,2.374,29.491,3.33,59.626H761.634ZM761.629,90.32h0a187.82,187.82,0,0,1,47.3,20.976A260.679,260.679,0,0,1,854.2,146.9a377.513,377.513,0,0,1,42.5,49.643,538.894,538.894,0,0,1,38.992,63.093q6.511,12.253,12.622,25.057t11.819,26.119q5.707,13.315,11.008,27.122T981.329,366q-26.1,2.858-52.99,5.124-26.874,2.263-54.431,3.918-27.538,1.652-55.646,2.681-28.089,1.026-56.635,1.413Zm.006,1253.324V1055.707q28.581.56,56.661,1.76,28.062,1.2,55.517,3.021,27.437,1.821,54.161,4.252,26.706,2.429,52.592,5.456-4.826,13.945-10.047,27.453t-10.833,26.543q-5.612,13.035-11.611,25.578t-12.382,24.556A538.885,538.885,0,0,1,896.7,1237.42a377.5,377.5,0,0,1-42.5,49.643,260.688,260.688,0,0,1-45.267,35.6A187.821,187.821,0,0,1,761.634,1343.644Zm406.838-175.168a645.472,645.472,0,0,1-50.677,45.6,632.176,632.176,0,0,1-112.6,72.788,627.628,627.628,0,0,1-61.047,26.84q8.913-10.7,17.516-22.3t16.875-24.073q8.271-12.478,16.2-25.831t15.482-27.574q8.03-15.113,15.509-30.953t14.4-32.347q6.918-16.507,13.27-33.651t12.13-34.869q20.513,3.386,40.237,7.17t38.567,7.955q18.844,4.171,36.763,8.724t34.826,9.478q-5.525,6.9-11.252,13.67t-11.656,13.405q-5.93,6.634-12.064,13.128T1168.472,1168.475Zm97.863-125.831q-19.639-6.314-40.682-12.122-21.027-5.806-43.357-11.091-22.313-5.283-45.828-10.03-23.5-4.745-48.1-8.94,6.635-28.117,11.92-57.241,5.281-29.1,9.183-59.071,3.9-29.946,6.388-60.621,2.486-30.652,3.537-61.894h233.664a639.249,639.249,0,0,1-9.22,74.257,627.3,627.3,0,0,1-77.508,206.753Z" fill="#001a27"/>
</svg>
