<svg xmlns="http://www.w3.org/2000/svg" width="49.613" height="49.613" viewBox="0 0 49.613 49.613"><g transform="translate(0)"><g transform="translate(0 0)"><path d="M42.347,7.266A24.806,24.806,0,1,0,7.266,42.347,24.806,24.806,0,1,0,42.347,7.266ZM9.323,9.323a21.843,21.843,0,0,1,7.533-4.931A20.451,20.451,0,0,0,14.78,7.587a28.577,28.577,0,0,0-1.911,4.558,44.812,44.812,0,0,1-5.077-1.124A22.328,22.328,0,0,1,9.323,9.323Zm-3.293,4.2a44.947,44.947,0,0,0,6.052,1.435,42.236,42.236,0,0,0-1.072,8.391H2.959A21.7,21.7,0,0,1,6.03,13.526ZM5.872,35.818a21.7,21.7,0,0,1-2.913-9.557h8.057a42.193,42.193,0,0,0,1.052,8.158A47.165,47.165,0,0,0,5.872,35.818Zm3.452,4.472A22.28,22.28,0,0,1,7.6,38.346a47.05,47.05,0,0,1,5.253-1.108,28.627,28.627,0,0,0,1.931,4.618,20.116,20.116,0,0,0,2.278,3.44A21.838,21.838,0,0,1,9.323,40.289Zm14.028,6.04c-2.21-.619-4.3-2.637-6-5.838a25.3,25.3,0,0,1-1.565-3.642c2.4-.264,4.946-.42,7.567-.456Zm0-12.847a81.992,81.992,0,0,0-8.391.534,39.032,39.032,0,0,1-1.034-7.755h9.424v7.221Zm0-10.131h-9.43a39.09,39.09,0,0,1,1.049-7.965,80.793,80.793,0,0,0,8.381.587Zm0-10.288c-2.63-.053-5.175-.225-7.554-.5A25.3,25.3,0,0,1,17.35,8.952c1.7-3.2,3.792-5.219,6-5.838Zm20.323.617a21.706,21.706,0,0,1,2.98,9.671H38.6a42.288,42.288,0,0,0-1.051-8.3A47.527,47.527,0,0,0,43.674,13.68ZM40.289,9.323a22.3,22.3,0,0,1,1.639,1.832,47.5,47.5,0,0,1-5.155,1.077,28.645,28.645,0,0,0-1.94-4.645,20.452,20.452,0,0,0-2.077-3.195A21.843,21.843,0,0,1,40.289,9.323ZM26.261,26.261h9.424a38.981,38.981,0,0,1-1.047,7.811,80.872,80.872,0,0,0-8.377-.582Zm0-2.91V15.983a82.08,82.08,0,0,0,8.4-.529,39.13,39.13,0,0,1,1.033,7.9h-9.43Zm0-20.237h0c2.21.619,4.3,2.637,6,5.838a25.338,25.338,0,0,1,1.574,3.667c-2.4.263-4.952.418-7.575.453Zm0,43.215V36.4c2.628.052,5.17.222,7.549.5a25.284,25.284,0,0,1-1.547,3.59C30.562,43.692,28.472,45.71,26.261,46.329Zm14.028-6.04A21.833,21.833,0,0,1,32.555,45.3a20.116,20.116,0,0,0,2.278-3.44,28.566,28.566,0,0,0,1.907-4.545,44.765,44.765,0,0,1,5.186,1.149A22.311,22.311,0,0,1,40.289,40.289Zm3.374-4.339A44.947,44.947,0,0,0,37.527,34.5a42.161,42.161,0,0,0,1.07-8.235h8.057A21.706,21.706,0,0,1,43.664,35.951Z" transform="translate(0 0)" fill="#fff"/></g></g></svg>