<svg xmlns="http://www.w3.org/2000/svg" width="270.722" height="270.722" viewBox="0 0 270.722 270.722">
  <g id="icon" transform="translate(4.016 4.064)" opacity="0.8">
    <path id="路径_3" data-name="路径 3" d="M13,6.98c34.106-9.718,71.641-1.668,97.745,24.436s34.154,63.639,24.436,97.745M43.545,49.744C55.726,47.318,69.759,51.52,80.2,61.962S94.844,86.435,92.417,98.617" transform="translate(120.48 0)" fill="none" stroke="#0e6da0" stroke-linecap="round" stroke-linejoin="round" stroke-width="14"/>
    <path id="路径_4" data-name="路径 4" d="M176.451,257.981a109.861,109.861,0,0,0,38.06,0c20.2-3.56,36.475-17.122,42.079-35.073l1.189-3.808a40.8,40.8,0,0,0,1.862-12.163c0-18.137-16.221-32.842-36.231-32.842H167.552c-20.01,0-36.231,14.7-36.231,32.842a40.8,40.8,0,0,0,1.862,12.163l1.189,3.808C139.977,240.859,156.249,254.421,176.451,257.981Zm0,0A214.45,214.45,0,0,1,4.661,86.19m0,0a109.839,109.839,0,0,1,0-38.059c3.56-20.2,17.123-36.474,35.073-42.079l3.807-1.189A40.778,40.778,0,0,1,55.706,3C73.844,3,88.547,19.221,88.547,39.23V95.091c0,20.009-14.7,36.23-32.841,36.23a40.81,40.81,0,0,1-12.164-1.862l-3.807-1.189C21.784,122.665,8.221,106.392,4.661,86.19Z" transform="translate(0 0)" fill="none" stroke="#39bef0" stroke-width="14"/>
  </g>
</svg>
