<svg xmlns="http://www.w3.org/2000/svg" width="15.012" height="18.6" viewBox="0 0 15.012 18.6">
  <g id="_icon" data-name=" icon" transform="translate(0.8 0.8)">
    <ellipse id="Ellipse_169" data-name="Ellipse 169" cx="4.229" cy="4.22" rx="4.229" ry="4.22" transform="translate(2.473)" fill="none" stroke="#fff" stroke-linecap="round" stroke-linejoin="round" stroke-width="1.6"/>
    <path id="Path_8" data-name="Path 8" d="M4,18.349a1.954,1.954,0,0,1,.194-.857,3.576,3.576,0,0,1,2.493-1.431A14.859,14.859,0,0,1,8.76,15.77a22.176,22.176,0,0,1,3.877,0,15.036,15.036,0,0,1,2.072.291A3.44,3.44,0,0,1,17.2,17.492a2,2,0,0,1,0,1.722,3.407,3.407,0,0,1-2.493,1.423,13.923,13.923,0,0,1-2.072.3,22.872,22.872,0,0,1-3.157.049,3.6,3.6,0,0,1-.72-.049,13.653,13.653,0,0,1-2.064-.3,3.424,3.424,0,0,1-2.5-1.423A2.01,2.01,0,0,1,4,18.349Z" transform="translate(-4 -4.017)" fill="none" stroke="#fff" stroke-linecap="round" stroke-linejoin="round" stroke-width="1.6" fill-rule="evenodd"/>
  </g>
</svg>
